HIERARCHY
ROOT Hips
{
	OFFSET	0.00	0.00	0.00
	CHANNELS 6 Xposition Yposition Zposition Zrotation Xrotation Yrotation
	JOINT LeftUpLeg
	{
		OFFSET	 0.126116	-0.014019	-0.065224
		CHANNELS 3 Zrotation Xrotation Yrotation
		JOINT LeftLeg
		{
			OFFSET	 0.000000	 0.000000	 0.569914
			CHANNELS 3 Zrotation Xrotation Yrotation
			JOINT LeftFoot
			{
				OFFSET	 0.000000	 0.000000	 0.544423
				CHANNELS 3 Zrotation Xrotation Yrotation
				JOINT LeftToeBase
				{
					OFFSET	 0.000000	 0.000000	 0.207117
					CHANNELS 3 Zrotation Xrotation Yrotation
					End Site
					{
						OFFSET	 0.000000	 0.000000	 0.207117
					}
				}
			}
		}
	}
	JOINT RightUpLeg
	{
		OFFSET	-0.124023	-0.008373	-0.065224
		CHANNELS 3 Zrotation Xrotation Yrotation
		JOINT RightLeg
		{
			OFFSET	 0.000000	 0.000000	 0.570047
			CHANNELS 3 Zrotation Xrotation Yrotation
			JOINT RightFoot
			{
				OFFSET	 0.000000	 0.000000	 0.544354
				CHANNELS 3 Zrotation Xrotation Yrotation
				JOINT RightToeBase
				{
					OFFSET	 0.000000	 0.000000	 0.207540
					CHANNELS 3 Zrotation Xrotation Yrotation
					End Site
					{
						OFFSET	 0.000000	 0.000000	 0.207540
					}
				}
			}
		}
	}
	JOINT Spine
	{
		OFFSET	 0.000184	-0.007763	 0.117403
		CHANNELS 3 Zrotation Xrotation Yrotation
		JOINT Spine1
		{
			OFFSET	 0.000000	 0.000000	 0.137269
			CHANNELS 3 Zrotation Xrotation Yrotation
			JOINT Spine2
			{
				OFFSET	 0.000000	 0.000000	 0.156879
				CHANNELS 3 Zrotation Xrotation Yrotation
				JOINT LeftShoulder
				{
					OFFSET	 0.080501	-0.002496	 0.160144
					CHANNELS 3 Zrotation Xrotation Yrotation
					JOINT LeftArm
					{
						OFFSET	 0.000000	 0.000000	 0.164363
						CHANNELS 3 Zrotation Xrotation Yrotation
						JOINT LeftForeArm
						{
							OFFSET	 0.000000	 0.000000	 0.364576
							CHANNELS 3 Zrotation Xrotation Yrotation
							JOINT LeftHand
							{
								OFFSET	 0.000000	 0.000000	 0.360812
								CHANNELS 3 Zrotation Xrotation Yrotation
								JOINT LeftHandIndex1
								{
									OFFSET	 0.000000	 0.000000	 0.086006
									CHANNELS 3 Zrotation Xrotation Yrotation
									JOINT LeftHandIndex2
									{
										OFFSET	 0.000000	 0.000000	 0.047237
										CHANNELS 3 Zrotation Xrotation Yrotation
										JOINT LeftHandIndex3
										{
											OFFSET	-0.004284	-0.000551	 0.038165
											CHANNELS 3 Zrotation Xrotation Yrotation
											End Site
											{
												OFFSET	-0.004284	-0.000551	 0.038165
											}
										}
									}
								}
							}
						}
					}
				}
				JOINT Neck
				{
					OFFSET	 0.000000	 0.000000	 0.176489
					CHANNELS 3 Zrotation Xrotation Yrotation
					JOINT Head
					{
						OFFSET	 0.000000	-0.001747	 0.077940
						CHANNELS 3 Zrotation Xrotation Yrotation
						End Site
						{
							OFFSET	 0.000000	-0.001747	 0.077940
						}
					}
				}
				JOINT RightShoulder
				{
					OFFSET	-0.080363	 0.000306	 0.159706
					CHANNELS 3 Zrotation Xrotation Yrotation
					JOINT RightArm
					{
						OFFSET	 0.000000	 0.000000	 0.164196
						CHANNELS 3 Zrotation Xrotation Yrotation
						JOINT RightForeArm
						{
							OFFSET	 0.000000	 0.000000	 0.365611
							CHANNELS 3 Zrotation Xrotation Yrotation
							JOINT RightHand
							{
								OFFSET	 0.000000	 0.000000	 0.360648
								CHANNELS 3 Zrotation Xrotation Yrotation
								JOINT RightHandIndex1
								{
									OFFSET	 0.000000	 0.000000	 0.069977
									CHANNELS 3 Zrotation Xrotation Yrotation
									JOINT RightHandIndex2
									{
										OFFSET	 0.000000	 0.000000	 0.052305
										CHANNELS 3 Zrotation Xrotation Yrotation
										JOINT RightHandIndex3
										{
											OFFSET	 0.009002	-0.000782	 0.042196
											CHANNELS 3 Zrotation Xrotation Yrotation
											End Site
											{
												OFFSET	 0.009002	-0.000782	 0.042196
											}
										}
									}
								}
							}
						}
					}
				}
			}
		}
	}
}
MOTION
Frames:    4
Frame Time: 0.03333334
-0.714936	-0.027942	 1.256390	 169.402200	-8.881704	-0.889221	 8.043492	 2.641091	 177.617200	-1.810812	-30.090620	-1.643024	-54.928680	 76.793980	 46.010310	-2.385833	 28.452760	 0.000004	-33.335830	-5.266646	-165.340300	 10.247800	-31.276100	 5.479252	 20.988730	 78.660190	-22.989910	 2.384659	 28.388700	-0.000001	 57.043440	 4.250809	-14.048320	 7.758157	 4.468047	-0.449223	-1.456309	 6.414828	 1.059505	-91.776160	 78.527360	 180.000000	 2.975981	 52.195510	-40.975260	-5.458581	 54.239130	-119.266500	-83.257800	-11.664560	-42.883690	-4.130354	 21.526190	 0.991307	-5.167926	 0.731697	 3.519349	-1.378229	 35.397820	-2.634230	 14.830200	 5.189135	-3.651681	 5.455353	-14.107970	-4.756115	 89.782140	 78.203870	 180.000000	-51.668150	-0.091539	 86.419970	-24.039680	 5.121243	 173.688100	 34.060670	-11.411900	 4.374672	 5.716295	 19.173350	-3.684826	 5.027458	 0.246833	-9.377971	-2.350882	 35.473990	 5.254307
-0.713256	-0.028401	 1.254963	 168.837600	-8.180788	-0.531248	 7.042441	 1.885335	 177.809400	-1.483762	-30.347870	-1.490152	-56.052510	 77.160210	 46.929660	-2.385833	 28.452760	 0.000004	-34.166070	-6.268870	-165.807400	 10.676190	-31.599850	 5.760000	 20.304350	 78.732470	-22.373360	 2.384659	 28.388700	-0.000001	 58.760440	 1.849455	-14.337080	 9.147202	 6.197143	-1.421283	-1.565948	 4.825908	 1.508470	-91.776180	 78.527350	-180.000000	-13.193340	 46.320100	-37.584470	-6.977763	 54.585430	-117.504600	-84.345710	-11.227020	-43.732690	-4.130354	 21.526190	 0.991307	-5.167926	 0.731697	 3.519349	-1.378229	 35.397820	-2.634230	 15.093580	 5.433715	-4.544907	 5.279121	-16.194110	-5.140660	 89.782020	 78.203870	-179.999900	-51.729490	-2.248533	 85.561790	-22.115190	 4.687767	 172.186600	 28.664670	-10.427980	 2.611818	 5.716295	 19.173350	-3.684826	 5.027458	 0.246833	-9.377971	-2.350882	 35.473990	 5.254307
-0.711235	-0.029078	 1.254023	 168.397600	-7.091275	-0.521941	 6.153999	 0.604121	 178.659900	-1.183735	-30.378270	-1.339471	-53.829470	 77.664440	 44.466700	-2.385833	 28.452760	 0.000004	-34.685670	-8.090261	-166.099900	 11.087200	-32.072290	 6.060699	 19.753790	 78.558240	-21.792550	 2.384659	 28.388700	-0.000001	 60.196860	-1.127737	-14.177310	 10.349510	 9.253089	-0.442132	-1.628390	 2.576051	 0.497499	-91.776160	 78.527360	 180.000000	-30.181690	 35.418170	-75.774380	-71.817020	 17.075060	-25.907310	-85.213390	-10.913940	-44.057170	-4.130354	 21.526190	 0.991307	-5.167926	 0.731697	 3.519349	-1.378229	 35.397820	-2.634230	 15.156070	 5.888365	-5.107310	 5.182963	-18.346730	-5.303566	 89.782030	 78.203890	-179.999900	-50.359350	-3.877776	 85.482600	-19.791910	 3.864942	 170.604600	 23.541310	-9.088950	-0.520322	 5.716295	 19.173350	-3.684826	 5.027458	 0.246833	-9.377971	-2.350882	 35.473990	 5.254307
-0.709403	-0.029000	 1.253708	 167.940100	-6.085682	-0.270129	 4.808574	-0.335271	 178.850400	-0.771046	-30.271930	-1.126921	-55.125900	 78.016170	 45.556570	-2.385833	 28.452760	 0.000004	-35.529010	-9.298008	-166.823500	 11.533860	-32.524490	 6.383466	 19.543540	 78.756870	-21.504680	 2.384659	 28.388700	-0.000001	 61.913310	-4.309741	-13.737350	 12.100530	 11.232030	-0.983359	-1.859892	 1.268995	-0.009064	-91.776200	 78.527380	-180.000000	-37.220730	 33.654530	-77.636720	-71.515400	 16.624090	-25.638600	-85.936880	-10.815160	-44.167800	-4.130354	 21.526190	 0.991307	-5.167926	 0.731697	 3.519349	-1.378229	 35.397820	-2.634230	 14.879120	 5.281821	-5.082189	 4.951807	-19.044750	-5.768965	 89.782060	 78.203890	-180.000000	-47.650380	-5.001324	 87.075070	-17.339330	 3.054681	 168.721100	 18.348600	-8.311456	-5.975210	 5.716295	 19.173350	-3.684826	 5.027458	 0.246833	-9.377971	-2.350882	 35.473990	 5.254307
